<svg xmlns="http://www.w3.org/2000/svg" viewBox="0 0 200 220">
  <!-- legs -->
  <path d="M78 176 L74 204" stroke="#2F8CF0" stroke-width="10" stroke-linecap="round"/>
  <path d="M122 176 L126 204" stroke="#2F8CF0" stroke-width="10" stroke-linecap="round"/>
  <ellipse cx="66" cy="208" rx="18" ry="8" fill="#2F8CF0"/>
  <ellipse cx="134" cy="208" rx="18" ry="8" fill="#2F8CF0"/>
  <!-- arms -->
  <path d="M46 138 Q26 150 18 164" stroke="#2F8CF0" stroke-width="9" stroke-linecap="round" fill="none"/>
  <circle cx="16" cy="166" r="8" fill="#2F8CF0"/>
  <path d="M152 128 Q170 116 180 104" stroke="#2F8CF0" stroke-width="9" stroke-linecap="round" fill="none"/>
  <circle cx="184" cy="100" r="9" fill="#2F8CF0"/>
  <!-- body -->
  <path d="M100 8 C120 44 162 84 162 128 C162 164 134 186 100 186 C66 186 38 164 38 128 C38 84 80 44 100 8 Z" fill="#3FA2FF"/>
  <path d="M70 70 C62 86 54 104 54 120" stroke="#8CCBFF" stroke-width="8" stroke-linecap="round" fill="none"/>
  <!-- glasses -->
  <circle cx="76" cy="118" r="18" fill="#FFFFFF" stroke="#111111" stroke-width="6"/>
  <circle cx="124" cy="118" r="18" fill="#FFFFFF" stroke="#111111" stroke-width="6"/>
  <path d="M94 118 H106" stroke="#111111" stroke-width="6"/>
  <path d="M58 116 L42 110" stroke="#111111" stroke-width="6" stroke-linecap="round"/>
  <path d="M142 116 L158 110" stroke="#111111" stroke-width="6" stroke-linecap="round"/>
  <circle cx="78" cy="120" r="7" fill="#111111"/>
  <circle cx="122" cy="120" r="7" fill="#111111"/>
  <!-- mouth -->
  <path d="M86 146 Q100 162 114 146 Z" fill="#E5484D" stroke="#111111" stroke-width="4" stroke-linejoin="round"/>
</svg>
